<svg xmlns="http://www.w3.org/2000/svg" version="1.1" xmlns:xlink="http://www.w3.org/1999/xlink" xmlns:svgjs="http://svgjs.dev/svgjs" width="1440" height="720" preserveAspectRatio="none" viewBox="0 0 1440 720"><g mask="url(&quot;#SvgjsMask1090&quot;)" fill="none"><rect width="1440" height="720" x="0" y="0" fill="rgba(14, 30, 73, 1)"></rect><path d="M0,506.678C123.399,499.578,249.484,615.749,359.461,559.333C468.372,503.464,494.122,357.695,522.531,238.632C547.188,135.296,515.557,32.724,510.434,-73.389C504.655,-193.073,546.864,-319.278,490.489,-425.011C429.609,-539.195,323.786,-650.474,195.168,-664.683C66.529,-678.894,-22.524,-535.836,-145.422,-495.262C-262.15,-456.725,-401.725,-506.296,-501.608,-434.645C-608.608,-357.888,-687.486,-231.5,-696.27,-100.109C-704.904,29.036,-599.526,131.516,-547.377,249.979C-494.319,370.506,-506.295,546.373,-387.066,602.287C-264.253,659.882,-135.423,514.47,0,506.678" fill="#0b183b"></path><path d="M1440 1408.184C1569.284 1398.281 1621.018 1233.4099999999999 1708.3600000000001 1137.577 1771.879 1067.883 1824.757 996.511 1882.875 922.254 1961.6390000000001 821.617 2096.8469999999998 750.622 2110.649 623.575 2124.692 494.307 2060.034 349.404 1953.153 275.35 1847.758 202.32500000000005 1700.811 286.728 1576.901 253.75799999999998 1458.057 222.13600000000002 1375.432 65.221 1254.885 89.55700000000002 1136.374 113.48199999999997 1085.482 257.128 1029.467 364.271 982.983 453.182 985.7280000000001 553.867 961.269 651.169 933.2429999999999 762.663 837.746 869.2429999999999 875.212 977.9300000000001 912.539 1086.212 1052.74 1111.411 1143.85 1180.818 1244.897 1257.795 1313.344 1417.886 1440 1408.184" fill="#112457"></path></g><defs><mask id="SvgjsMask1090"><rect width="1440" height="720" fill="#ffffff"></rect></mask></defs></svg>