<svg xmlns="http://www.w3.org/2000/svg" xmlns:xlink="http://www.w3.org/1999/xlink" width="386" zoomAndPan="magnify" viewBox="0 0 289.5 133.500001" height="178" preserveAspectRatio="xMidYMid meet" version="1.2"><defs><filter x="0%" y="0%" width="100%" filterUnits="objectBoundingBox" id="8433fab3e4" height="100%"><feColorMatrix values="0 0 0 0 1 0 0 0 0 1 0 0 0 0 1 0 0 0 1 0" type="matrix" in="SourceGraphic"/></filter><clipPath id="acd7819350"><rect x="0" width="93" y="0" height="24"/></clipPath></defs><g id="641ace0973"><g mask="url(#b6a699d276)" transform="matrix(1,0,0,1,98,2)"><g clip-path="url(#acd7819350)"><g style="fill:#ffffff;fill-opacity:1;"><g transform="translate(0.955546, 17.329734)"><path style="stroke:none" d="M 1.28125 0 L 1.28125 -12.046875 L 2.71875 -12.046875 L 2.71875 0 Z M 1.28125 0 "/></g></g><g style="fill:#ffffff;fill-opacity:1;"><g transform="translate(4.948028, 17.329734)"><path style="stroke:none" d="M 1.1875 0 L 1.1875 -8.546875 L 2.5 -8.546875 L 2.578125 -7.015625 C 2.859375 -7.546875 3.253906 -7.96875 3.765625 -8.28125 C 4.285156 -8.59375 4.875 -8.75 5.53125 -8.75 C 6.539062 -8.75 7.34375 -8.441406 7.9375 -7.828125 C 8.539062 -7.210938 8.84375 -6.269531 8.84375 -5 L 8.84375 0 L 7.40625 0 L 7.40625 -4.84375 C 7.40625 -6.613281 6.671875 -7.5 5.203125 -7.5 C 4.460938 -7.5 3.847656 -7.234375 3.359375 -6.703125 C 2.878906 -6.171875 2.640625 -5.410156 2.640625 -4.421875 L 2.640625 0 Z M 1.1875 0 "/></g></g><g style="fill:#ffffff;fill-opacity:1;"><g transform="translate(14.791566, 17.329734)"><path style="stroke:none" d="M 4.5625 0 C 3.78125 0 3.164062 -0.1875 2.71875 -0.5625 C 2.269531 -0.945312 2.046875 -1.632812 2.046875 -2.625 L 2.046875 -7.3125 L 0.5625 -7.3125 L 0.5625 -8.546875 L 2.046875 -8.546875 L 2.234375 -10.59375 L 3.5 -10.59375 L 3.5 -8.546875 L 6.015625 -8.546875 L 6.015625 -7.3125 L 3.5 -7.3125 L 3.5 -2.625 C 3.5 -2.082031 3.609375 -1.710938 3.828125 -1.515625 C 4.046875 -1.328125 4.425781 -1.234375 4.96875 -1.234375 L 5.875 -1.234375 L 5.875 0 Z M 4.5625 0 "/></g></g><g style="fill:#ffffff;fill-opacity:1;"><g transform="translate(21.451436, 17.329734)"><path style="stroke:none" d="M 1.1875 0 L 1.1875 -8.546875 L 2.5 -8.546875 L 2.625 -6.90625 C 2.882812 -7.46875 3.28125 -7.914062 3.8125 -8.25 C 4.351562 -8.582031 5.019531 -8.75 5.8125 -8.75 L 5.8125 -7.234375 L 5.421875 -7.234375 C 4.921875 -7.234375 4.457031 -7.144531 4.03125 -6.96875 C 3.601562 -6.789062 3.265625 -6.488281 3.015625 -6.0625 C 2.765625 -5.632812 2.640625 -5.050781 2.640625 -4.3125 L 2.640625 0 Z M 1.1875 0 "/></g></g><g style="fill:#ffffff;fill-opacity:1;"><g transform="translate(27.371197, 17.329734)"><path style="stroke:none" d="M 5.078125 0.203125 C 4.273438 0.203125 3.550781 0.0195312 2.90625 -0.34375 C 2.269531 -0.707031 1.765625 -1.222656 1.390625 -1.890625 C 1.015625 -2.566406 0.828125 -3.359375 0.828125 -4.265625 C 0.828125 -5.171875 1.015625 -5.957031 1.390625 -6.625 C 1.773438 -7.300781 2.289062 -7.820312 2.9375 -8.1875 C 3.582031 -8.5625 4.304688 -8.75 5.109375 -8.75 C 5.910156 -8.75 6.632812 -8.5625 7.28125 -8.1875 C 7.925781 -7.820312 8.429688 -7.300781 8.796875 -6.625 C 9.171875 -5.957031 9.359375 -5.171875 9.359375 -4.265625 C 9.359375 -3.359375 9.171875 -2.566406 8.796875 -1.890625 C 8.421875 -1.222656 7.90625 -0.707031 7.25 -0.34375 C 6.601562 0.0195312 5.878906 0.203125 5.078125 0.203125 Z M 5.078125 -1.03125 C 5.566406 -1.03125 6.023438 -1.148438 6.453125 -1.390625 C 6.878906 -1.628906 7.222656 -1.988281 7.484375 -2.46875 C 7.753906 -2.957031 7.890625 -3.554688 7.890625 -4.265625 C 7.890625 -4.984375 7.757812 -5.582031 7.5 -6.0625 C 7.238281 -6.539062 6.894531 -6.898438 6.46875 -7.140625 C 6.050781 -7.378906 5.597656 -7.5 5.109375 -7.5 C 4.617188 -7.5 4.160156 -7.378906 3.734375 -7.140625 C 3.304688 -6.898438 2.960938 -6.539062 2.703125 -6.0625 C 2.441406 -5.582031 2.3125 -4.984375 2.3125 -4.265625 C 2.3125 -3.554688 2.441406 -2.957031 2.703125 -2.46875 C 2.960938 -1.988281 3.300781 -1.628906 3.71875 -1.390625 C 4.144531 -1.148438 4.597656 -1.03125 5.078125 -1.03125 Z M 5.078125 -1.03125 "/></g></g><g style="fill:#ffffff;fill-opacity:1;"><g transform="translate(37.558909, 17.329734)"><path style="stroke:none" d="M 5.0625 0.203125 C 4.207031 0.203125 3.460938 0.0078125 2.828125 -0.375 C 2.191406 -0.769531 1.695312 -1.304688 1.34375 -1.984375 C 1 -2.660156 0.828125 -3.425781 0.828125 -4.28125 C 0.828125 -5.144531 1.003906 -5.910156 1.359375 -6.578125 C 1.710938 -7.253906 2.203125 -7.785156 2.828125 -8.171875 C 3.460938 -8.554688 4.210938 -8.75 5.078125 -8.75 C 5.773438 -8.75 6.394531 -8.601562 6.9375 -8.3125 C 7.476562 -8.03125 7.898438 -7.628906 8.203125 -7.109375 L 8.203125 -12.390625 L 9.640625 -12.390625 L 9.640625 0 L 8.328125 0 L 8.203125 -1.40625 C 7.921875 -1 7.519531 -0.628906 7 -0.296875 C 6.488281 0.0351562 5.84375 0.203125 5.0625 0.203125 Z M 5.21875 -1.046875 C 5.789062 -1.046875 6.296875 -1.179688 6.734375 -1.453125 C 7.179688 -1.722656 7.523438 -2.097656 7.765625 -2.578125 C 8.015625 -3.066406 8.140625 -3.628906 8.140625 -4.265625 C 8.140625 -4.910156 8.015625 -5.472656 7.765625 -5.953125 C 7.523438 -6.441406 7.179688 -6.816406 6.734375 -7.078125 C 6.296875 -7.347656 5.789062 -7.484375 5.21875 -7.484375 C 4.65625 -7.484375 4.148438 -7.347656 3.703125 -7.078125 C 3.265625 -6.816406 2.921875 -6.441406 2.671875 -5.953125 C 2.429688 -5.472656 2.3125 -4.910156 2.3125 -4.265625 C 2.3125 -3.628906 2.429688 -3.066406 2.671875 -2.578125 C 2.921875 -2.097656 3.265625 -1.722656 3.703125 -1.453125 C 4.148438 -1.179688 4.65625 -1.046875 5.21875 -1.046875 Z M 5.21875 -1.046875 "/></g></g><g style="fill:#ffffff;fill-opacity:1;"><g transform="translate(48.366149, 17.329734)"><path style="stroke:none" d="M 4.3125 0.203125 C 3.300781 0.203125 2.492188 -0.101562 1.890625 -0.71875 C 1.296875 -1.332031 1 -2.273438 1 -3.546875 L 1 -8.546875 L 2.4375 -8.546875 L 2.4375 -3.703125 C 2.4375 -1.921875 3.164062 -1.03125 4.625 -1.03125 C 5.375 -1.03125 5.992188 -1.296875 6.484375 -1.828125 C 6.972656 -2.367188 7.21875 -3.128906 7.21875 -4.109375 L 7.21875 -8.546875 L 8.65625 -8.546875 L 8.65625 0 L 7.359375 0 L 7.25 -1.53125 C 6.988281 -0.988281 6.59375 -0.5625 6.0625 -0.25 C 5.539062 0.0507812 4.957031 0.203125 4.3125 0.203125 Z M 4.3125 0.203125 "/></g></g><g style="fill:#ffffff;fill-opacity:1;"><g transform="translate(58.209687, 17.329734)"><path style="stroke:none" d="M 5.109375 0.203125 C 4.296875 0.203125 3.566406 0.0195312 2.921875 -0.34375 C 2.273438 -0.71875 1.765625 -1.238281 1.390625 -1.90625 C 1.015625 -2.582031 0.828125 -3.367188 0.828125 -4.265625 C 0.828125 -5.160156 1.015625 -5.941406 1.390625 -6.609375 C 1.765625 -7.285156 2.273438 -7.8125 2.921875 -8.1875 C 3.566406 -8.5625 4.296875 -8.75 5.109375 -8.75 C 6.117188 -8.75 6.972656 -8.484375 7.671875 -7.953125 C 8.367188 -7.421875 8.804688 -6.71875 8.984375 -5.84375 L 7.5 -5.84375 C 7.382812 -6.363281 7.101562 -6.769531 6.65625 -7.0625 C 6.207031 -7.351562 5.6875 -7.5 5.09375 -7.5 C 4.613281 -7.5 4.160156 -7.378906 3.734375 -7.140625 C 3.304688 -6.898438 2.960938 -6.539062 2.703125 -6.0625 C 2.441406 -5.582031 2.3125 -4.984375 2.3125 -4.265625 C 2.3125 -3.554688 2.441406 -2.957031 2.703125 -2.46875 C 2.960938 -1.988281 3.304688 -1.625 3.734375 -1.375 C 4.160156 -1.132812 4.613281 -1.015625 5.09375 -1.015625 C 5.6875 -1.015625 6.207031 -1.160156 6.65625 -1.453125 C 7.101562 -1.742188 7.382812 -2.160156 7.5 -2.703125 L 8.984375 -2.703125 C 8.816406 -1.835938 8.378906 -1.132812 7.671875 -0.59375 C 6.972656 -0.0625 6.117188 0.203125 5.109375 0.203125 Z M 5.109375 0.203125 "/></g></g><g style="fill:#ffffff;fill-opacity:1;"><g transform="translate(68.018804, 17.329734)"><path style="stroke:none" d="M 2.0625 -10.4375 C 1.78125 -10.4375 1.539062 -10.53125 1.34375 -10.71875 C 1.15625 -10.90625 1.0625 -11.144531 1.0625 -11.4375 C 1.0625 -11.707031 1.15625 -11.929688 1.34375 -12.109375 C 1.539062 -12.296875 1.78125 -12.390625 2.0625 -12.390625 C 2.34375 -12.390625 2.578125 -12.296875 2.765625 -12.109375 C 2.960938 -11.929688 3.0625 -11.707031 3.0625 -11.4375 C 3.0625 -11.144531 2.960938 -10.90625 2.765625 -10.71875 C 2.578125 -10.53125 2.34375 -10.4375 2.0625 -10.4375 Z M 1.34375 0 L 1.34375 -8.546875 L 2.796875 -8.546875 L 2.796875 0 Z M 1.34375 0 "/></g></g><g style="fill:#ffffff;fill-opacity:1;"><g transform="translate(72.131753, 17.329734)"><path style="stroke:none" d="M 1.1875 0 L 1.1875 -8.546875 L 2.5 -8.546875 L 2.578125 -7.015625 C 2.859375 -7.546875 3.253906 -7.96875 3.765625 -8.28125 C 4.285156 -8.59375 4.875 -8.75 5.53125 -8.75 C 6.539062 -8.75 7.34375 -8.441406 7.9375 -7.828125 C 8.539062 -7.210938 8.84375 -6.269531 8.84375 -5 L 8.84375 0 L 7.40625 0 L 7.40625 -4.84375 C 7.40625 -6.613281 6.671875 -7.5 5.203125 -7.5 C 4.460938 -7.5 3.847656 -7.234375 3.359375 -6.703125 C 2.878906 -6.171875 2.640625 -5.410156 2.640625 -4.421875 L 2.640625 0 Z M 1.1875 0 "/></g></g><g style="fill:#ffffff;fill-opacity:1;"><g transform="translate(81.975291, 17.329734)"><path style="stroke:none" d="M 4.5625 -2.6875 C 4.082031 -2.6875 3.640625 -2.75 3.234375 -2.875 L 2.375 -2.0625 C 2.5 -1.96875 2.65625 -1.890625 2.84375 -1.828125 C 3.039062 -1.765625 3.316406 -1.707031 3.671875 -1.65625 C 4.023438 -1.601562 4.523438 -1.550781 5.171875 -1.5 C 6.316406 -1.414062 7.132812 -1.148438 7.625 -0.703125 C 8.125 -0.253906 8.375 0.328125 8.375 1.046875 C 8.375 1.546875 8.238281 2.019531 7.96875 2.46875 C 7.695312 2.914062 7.28125 3.28125 6.71875 3.5625 C 6.164062 3.851562 5.453125 4 4.578125 4 C 3.804688 4 3.125 3.894531 2.53125 3.6875 C 1.9375 3.488281 1.472656 3.1875 1.140625 2.78125 C 0.804688 2.375 0.640625 1.859375 0.640625 1.234375 C 0.640625 0.910156 0.722656 0.5625 0.890625 0.1875 C 1.066406 -0.175781 1.390625 -0.523438 1.859375 -0.859375 C 1.609375 -0.960938 1.394531 -1.070312 1.21875 -1.1875 C 1.039062 -1.3125 0.875 -1.445312 0.71875 -1.59375 L 0.71875 -2 L 2.1875 -3.4375 C 1.507812 -4.019531 1.171875 -4.78125 1.171875 -5.71875 C 1.171875 -6.28125 1.300781 -6.789062 1.5625 -7.25 C 1.832031 -7.707031 2.21875 -8.070312 2.71875 -8.34375 C 3.226562 -8.613281 3.84375 -8.75 4.5625 -8.75 C 5.050781 -8.75 5.5 -8.679688 5.90625 -8.546875 L 9.0625 -8.546875 L 9.0625 -7.453125 L 7.453125 -7.390625 C 7.785156 -6.898438 7.953125 -6.34375 7.953125 -5.71875 C 7.953125 -5.15625 7.816406 -4.644531 7.546875 -4.1875 C 7.273438 -3.726562 6.890625 -3.363281 6.390625 -3.09375 C 5.890625 -2.820312 5.28125 -2.6875 4.5625 -2.6875 Z M 4.5625 -3.875 C 5.164062 -3.875 5.648438 -4.03125 6.015625 -4.34375 C 6.378906 -4.664062 6.5625 -5.125 6.5625 -5.71875 C 6.5625 -6.300781 6.378906 -6.75 6.015625 -7.0625 C 5.648438 -7.382812 5.164062 -7.546875 4.5625 -7.546875 C 3.945312 -7.546875 3.457031 -7.382812 3.09375 -7.0625 C 2.726562 -6.75 2.546875 -6.300781 2.546875 -5.71875 C 2.546875 -5.125 2.726562 -4.664062 3.09375 -4.34375 C 3.457031 -4.03125 3.945312 -3.875 4.5625 -3.875 Z M 2.046875 1.109375 C 2.046875 1.679688 2.285156 2.109375 2.765625 2.390625 C 3.253906 2.671875 3.859375 2.8125 4.578125 2.8125 C 5.285156 2.8125 5.851562 2.65625 6.28125 2.34375 C 6.71875 2.03125 6.9375 1.617188 6.9375 1.109375 C 6.9375 0.734375 6.785156 0.410156 6.484375 0.140625 C 6.191406 -0.128906 5.644531 -0.285156 4.84375 -0.328125 C 4.207031 -0.367188 3.660156 -0.425781 3.203125 -0.5 C 2.734375 -0.25 2.421875 0.0195312 2.265625 0.3125 C 2.117188 0.601562 2.046875 0.867188 2.046875 1.109375 Z M 2.046875 1.109375 "/></g></g></g><mask id="b6a699d276"><g filter="url(#8433fab3e4)"><rect x="0" width="289.5" y="0" height="133.500001" style="fill:#000000;fill-opacity:0.82;stroke:none;"/></g></mask></g><g style="fill:#007dff;fill-opacity:1;"><g transform="translate(31.176193, 86.513505)"><path style="stroke:none" d="M 36.625 -27.671875 C 36.238281 -25.304688 35.328125 -23.144531 33.890625 -21.1875 C 32.460938 -19.226562 30.515625 -17.648438 28.046875 -16.453125 C 25.585938 -15.253906 22.691406 -14.65625 19.359375 -14.65625 L 13.203125 -14.65625 L 10.578125 0 L 0.640625 0 L 7.84375 -40.8125 L 23.953125 -40.8125 C 28.210938 -40.8125 31.425781 -39.867188 33.59375 -37.984375 C 35.769531 -36.109375 36.859375 -33.5625 36.859375 -30.34375 C 36.859375 -29.375 36.78125 -28.484375 36.625 -27.671875 Z M 19.9375 -22.4375 C 23.664062 -22.4375 25.859375 -24.179688 26.515625 -27.671875 C 26.585938 -28.296875 26.625 -28.742188 26.625 -29.015625 C 26.625 -30.253906 26.226562 -31.210938 25.4375 -31.890625 C 24.644531 -32.566406 23.429688 -32.90625 21.796875 -32.90625 L 16.390625 -32.90625 L 14.59375 -22.4375 Z M 19.9375 -22.4375 "/></g></g><g style="fill:#007dff;fill-opacity:1;"><g transform="translate(67.449304, 86.513505)"><path style="stroke:none" d="M 1.5625 -16.28125 C 2.144531 -19.613281 3.289062 -22.539062 5 -25.0625 C 6.707031 -27.582031 8.757812 -29.519531 11.15625 -30.875 C 13.5625 -32.226562 16.101562 -32.90625 18.78125 -32.90625 C 21.0625 -32.90625 22.976562 -32.4375 24.53125 -31.5 C 26.082031 -30.570312 27.207031 -29.351562 27.90625 -27.84375 L 28.71875 -32.4375 L 38.65625 -32.4375 L 32.90625 0 L 22.96875 0 L 23.84375 -4.59375 C 22.601562 -3.082031 21.03125 -1.859375 19.125 -0.921875 C 17.226562 0.00390625 15.132812 0.46875 12.84375 0.46875 C 10.5625 0.46875 8.535156 -0.0507812 6.765625 -1.09375 C 5.003906 -2.144531 3.640625 -3.628906 2.671875 -5.546875 C 1.703125 -7.472656 1.21875 -9.734375 1.21875 -12.328125 C 1.21875 -13.566406 1.332031 -14.882812 1.5625 -16.28125 Z M 25.875 -16.21875 C 25.988281 -16.914062 26.046875 -17.554688 26.046875 -18.140625 C 26.046875 -20.035156 25.492188 -21.523438 24.390625 -22.609375 C 23.285156 -23.703125 21.878906 -24.25 20.171875 -24.25 C 18.191406 -24.25 16.390625 -23.539062 14.765625 -22.125 C 13.140625 -20.707031 12.113281 -18.757812 11.6875 -16.28125 C 11.570312 -15.582031 11.515625 -14.941406 11.515625 -14.359375 C 11.515625 -12.460938 12.066406 -10.960938 13.171875 -9.859375 C 14.273438 -8.753906 15.660156 -8.203125 17.328125 -8.203125 C 19.304688 -8.203125 21.109375 -8.914062 22.734375 -10.34375 C 24.359375 -11.78125 25.40625 -13.738281 25.875 -16.21875 Z M 25.875 -16.21875 "/></g></g><g style="fill:#007dff;fill-opacity:1;"><g transform="translate(106.919569, 86.513505)"><path style="stroke:none" d="M 13.78125 -32.4375 L 17.734375 -12.15625 L 28.78125 -32.4375 L 39.53125 -32.4375 L 10.75 15.40625 L 0.0625 15.40625 L 10.40625 -1.109375 L 2.734375 -32.4375 Z M 13.78125 -32.4375 "/></g></g><g style="fill:#007dff;fill-opacity:1;"><g transform="translate(143.657719, 86.513505)"><path style="stroke:none" d="M 12.671875 -8.140625 L 30.234375 -8.140625 L 28.78125 0 L -0.0625 0 L 1.28125 -7.5625 L 23.140625 -32.671875 L 5.703125 -32.671875 L 7.15625 -40.8125 L 35.984375 -40.8125 L 34.65625 -33.25 Z M 12.671875 -8.140625 "/></g></g><g style="fill:#007dff;fill-opacity:1;"><g transform="translate(178.30319, 86.513505)"><path style="stroke:none" d="M 1.5625 -16.28125 C 2.144531 -19.613281 3.289062 -22.539062 5 -25.0625 C 6.707031 -27.582031 8.757812 -29.519531 11.15625 -30.875 C 13.5625 -32.226562 16.101562 -32.90625 18.78125 -32.90625 C 21.0625 -32.90625 22.976562 -32.4375 24.53125 -31.5 C 26.082031 -30.570312 27.207031 -29.351562 27.90625 -27.84375 L 28.71875 -32.4375 L 38.65625 -32.4375 L 32.90625 0 L 22.96875 0 L 23.84375 -4.59375 C 22.601562 -3.082031 21.03125 -1.859375 19.125 -0.921875 C 17.226562 0.00390625 15.132812 0.46875 12.84375 0.46875 C 10.5625 0.46875 8.535156 -0.0507812 6.765625 -1.09375 C 5.003906 -2.144531 3.640625 -3.628906 2.671875 -5.546875 C 1.703125 -7.472656 1.21875 -9.734375 1.21875 -12.328125 C 1.21875 -13.566406 1.332031 -14.882812 1.5625 -16.28125 Z M 25.875 -16.21875 C 25.988281 -16.914062 26.046875 -17.554688 26.046875 -18.140625 C 26.046875 -20.035156 25.492188 -21.523438 24.390625 -22.609375 C 23.285156 -23.703125 21.878906 -24.25 20.171875 -24.25 C 18.191406 -24.25 16.390625 -23.539062 14.765625 -22.125 C 13.140625 -20.707031 12.113281 -18.757812 11.6875 -16.28125 C 11.570312 -15.582031 11.515625 -14.941406 11.515625 -14.359375 C 11.515625 -12.460938 12.066406 -10.960938 13.171875 -9.859375 C 14.273438 -8.753906 15.660156 -8.203125 17.328125 -8.203125 C 19.304688 -8.203125 21.109375 -8.914062 22.734375 -10.34375 C 24.359375 -11.78125 25.40625 -13.738281 25.875 -16.21875 Z M 25.875 -16.21875 "/></g></g><g style="fill:#007dff;fill-opacity:1;"><g transform="translate(217.773456, 86.513505)"><path style="stroke:none" d="M 15.46875 -27.84375 C 16.707031 -29.351562 18.265625 -30.570312 20.140625 -31.5 C 22.023438 -32.4375 24.109375 -32.90625 26.390625 -32.90625 C 29.878906 -32.90625 32.695312 -31.757812 34.84375 -29.46875 C 37 -27.1875 38.078125 -24.085938 38.078125 -20.171875 C 38.078125 -18.972656 37.960938 -17.675781 37.734375 -16.28125 C 37.148438 -12.945312 36.003906 -10.007812 34.296875 -7.46875 C 32.597656 -4.925781 30.546875 -2.96875 28.140625 -1.59375 C 25.734375 -0.21875 23.195312 0.46875 20.53125 0.46875 C 18.28125 0.46875 16.378906 0.00390625 14.828125 -0.921875 C 13.273438 -1.859375 12.128906 -3.0625 11.390625 -4.53125 L 7.84375 15.46875 L -2.09375 15.46875 L 6.34375 -32.4375 L 16.28125 -32.4375 Z M 27.671875 -16.28125 C 27.785156 -16.9375 27.84375 -17.535156 27.84375 -18.078125 C 27.84375 -20.015625 27.289062 -21.523438 26.1875 -22.609375 C 25.082031 -23.703125 23.679688 -24.25 21.984375 -24.25 C 20.003906 -24.25 18.195312 -23.53125 16.5625 -22.09375 C 14.9375 -20.65625 13.894531 -18.695312 13.4375 -16.21875 C 13.3125 -15.519531 13.25 -14.878906 13.25 -14.296875 C 13.25 -12.398438 13.789062 -10.910156 14.875 -9.828125 C 15.96875 -8.742188 17.363281 -8.203125 19.0625 -8.203125 C 21.039062 -8.203125 22.851562 -8.925781 24.5 -10.375 C 26.15625 -11.832031 27.210938 -13.800781 27.671875 -16.28125 Z M 27.671875 -16.28125 "/></g></g><g style="fill:#a6b3d4;fill-opacity:1;"><g transform="translate(70.500588, 124.368428)"><path style="stroke:none" d="M 9.3125 0 L 8 0 L 7.046875 -2.84375 L 2.640625 -2.84375 L 1.6875 0 L 0.40625 0 L 4.015625 -10.34375 L 5.703125 -10.34375 Z M 4.765625 -9.09375 L 2.984375 -3.859375 L 6.703125 -3.859375 L 4.9375 -9.09375 Z M 4.765625 -9.09375 "/></g></g><g style="fill:#a6b3d4;fill-opacity:1;"><g transform="translate(80.121286, 124.368428)"><path style="stroke:none" d="M 3.109375 0.15625 C 2.554688 0.15625 2.117188 0 1.796875 -0.3125 C 1.484375 -0.632812 1.328125 -1.101562 1.328125 -1.71875 L 1.328125 -10.9375 L 2.484375 -10.9375 L 2.484375 -1.796875 C 2.484375 -1.472656 2.546875 -1.238281 2.671875 -1.09375 C 2.796875 -0.957031 2.988281 -0.890625 3.25 -0.890625 C 3.414062 -0.890625 3.578125 -0.914062 3.734375 -0.96875 L 3.84375 -0.9375 L 3.96875 -0.03125 C 3.882812 0.03125 3.765625 0.078125 3.609375 0.109375 C 3.453125 0.140625 3.285156 0.15625 3.109375 0.15625 Z M 3.109375 0.15625 "/></g></g><g style="fill:#a6b3d4;fill-opacity:1;"><g transform="translate(84.362603, 124.368428)"><path style="stroke:none" d="M 3.109375 0.15625 C 2.554688 0.15625 2.117188 0 1.796875 -0.3125 C 1.484375 -0.632812 1.328125 -1.101562 1.328125 -1.71875 L 1.328125 -10.9375 L 2.484375 -10.9375 L 2.484375 -1.796875 C 2.484375 -1.472656 2.546875 -1.238281 2.671875 -1.09375 C 2.796875 -0.957031 2.988281 -0.890625 3.25 -0.890625 C 3.414062 -0.890625 3.578125 -0.914062 3.734375 -0.96875 L 3.84375 -0.9375 L 3.96875 -0.03125 C 3.882812 0.03125 3.765625 0.078125 3.609375 0.109375 C 3.453125 0.140625 3.285156 0.15625 3.109375 0.15625 Z M 3.109375 0.15625 "/></g></g><g style="fill:#a6b3d4;fill-opacity:1;"><g transform="translate(88.427153, 124.368428)"><path style="stroke:none" d="M 4.765625 -4.5 L 0.734375 -4.5 L 0.734375 -5.53125 L 4.765625 -5.53125 Z M 4.765625 -4.5 "/></g></g><g style="fill:#a6b3d4;fill-opacity:1;"><g transform="translate(93.912589, 124.368428)"><path style="stroke:none" d="M 1.9375 -9.3125 C 1.6875 -9.3125 1.484375 -9.382812 1.328125 -9.53125 C 1.179688 -9.6875 1.109375 -9.882812 1.109375 -10.125 C 1.109375 -10.351562 1.179688 -10.546875 1.328125 -10.703125 C 1.484375 -10.859375 1.6875 -10.9375 1.9375 -10.9375 C 2.1875 -10.9375 2.382812 -10.859375 2.53125 -10.703125 C 2.6875 -10.546875 2.765625 -10.351562 2.765625 -10.125 C 2.765625 -9.882812 2.6875 -9.6875 2.53125 -9.53125 C 2.382812 -9.382812 2.1875 -9.3125 1.9375 -9.3125 Z M 1.359375 0 L 1.359375 -7.796875 L 2.515625 -7.796875 L 2.515625 0 Z M 1.359375 0 "/></g></g><g style="fill:#a6b3d4;fill-opacity:1;"><g transform="translate(97.779257, 124.368428)"><path style="stroke:none" d="M 1.359375 0 L 1.359375 -7.796875 L 2.453125 -7.796875 L 2.453125 -6.578125 L 2.609375 -6.546875 C 2.859375 -7.003906 3.1875 -7.351562 3.59375 -7.59375 C 4 -7.832031 4.492188 -7.953125 5.078125 -7.953125 C 6.015625 -7.953125 6.691406 -7.710938 7.109375 -7.234375 C 7.535156 -6.753906 7.75 -6.015625 7.75 -5.015625 L 7.75 0 L 6.59375 0 L 6.59375 -5 C 6.59375 -5.46875 6.53125 -5.84375 6.40625 -6.125 C 6.289062 -6.414062 6.101562 -6.625 5.84375 -6.75 C 5.59375 -6.875 5.265625 -6.9375 4.859375 -6.9375 C 4.160156 -6.9375 3.59375 -6.703125 3.15625 -6.234375 C 2.726562 -5.773438 2.515625 -5.03125 2.515625 -4 L 2.515625 0 Z M 1.359375 0 "/></g></g><g style="fill:#a6b3d4;fill-opacity:1;"><g transform="translate(106.756711, 124.368428)"><path style="stroke:none" d="M 4.765625 -4.5 L 0.734375 -4.5 L 0.734375 -5.53125 L 4.765625 -5.53125 Z M 4.765625 -4.5 "/></g></g><g style="fill:#a6b3d4;fill-opacity:1;"><g transform="translate(112.362352, 124.368428)"><path style="stroke:none" d="M 4.484375 0.15625 C 3.742188 0.15625 3.097656 0 2.546875 -0.3125 C 2.003906 -0.625 1.585938 -1.082031 1.296875 -1.6875 C 1.003906 -2.300781 0.859375 -3.035156 0.859375 -3.890625 C 0.859375 -4.753906 1.003906 -5.488281 1.296875 -6.09375 C 1.585938 -6.707031 2.003906 -7.171875 2.546875 -7.484375 C 3.097656 -7.796875 3.742188 -7.953125 4.484375 -7.953125 C 5.210938 -7.953125 5.847656 -7.796875 6.390625 -7.484375 C 6.941406 -7.171875 7.363281 -6.707031 7.65625 -6.09375 C 7.945312 -5.488281 8.09375 -4.753906 8.09375 -3.890625 C 8.09375 -3.035156 7.945312 -2.300781 7.65625 -1.6875 C 7.363281 -1.082031 6.941406 -0.625 6.390625 -0.3125 C 5.847656 0 5.210938 0.15625 4.484375 0.15625 Z M 4.484375 -0.890625 C 5.253906 -0.890625 5.84375 -1.132812 6.25 -1.625 C 6.664062 -2.113281 6.875 -2.867188 6.875 -3.890625 C 6.875 -4.929688 6.664062 -5.695312 6.25 -6.1875 C 5.84375 -6.675781 5.253906 -6.921875 4.484375 -6.921875 C 3.703125 -6.921875 3.101562 -6.671875 2.6875 -6.171875 C 2.269531 -5.679688 2.0625 -4.921875 2.0625 -3.890625 C 2.0625 -2.867188 2.269531 -2.113281 2.6875 -1.625 C 3.101562 -1.132812 3.703125 -0.890625 4.484375 -0.890625 Z M 4.484375 -0.890625 "/></g></g><g style="fill:#a6b3d4;fill-opacity:1;"><g transform="translate(121.311531, 124.368428)"><path style="stroke:none" d="M 1.359375 0 L 1.359375 -7.796875 L 2.453125 -7.796875 L 2.453125 -6.578125 L 2.609375 -6.546875 C 2.859375 -7.003906 3.1875 -7.351562 3.59375 -7.59375 C 4 -7.832031 4.492188 -7.953125 5.078125 -7.953125 C 6.015625 -7.953125 6.691406 -7.710938 7.109375 -7.234375 C 7.535156 -6.753906 7.75 -6.015625 7.75 -5.015625 L 7.75 0 L 6.59375 0 L 6.59375 -5 C 6.59375 -5.46875 6.53125 -5.84375 6.40625 -6.125 C 6.289062 -6.414062 6.101562 -6.625 5.84375 -6.75 C 5.59375 -6.875 5.265625 -6.9375 4.859375 -6.9375 C 4.160156 -6.9375 3.59375 -6.703125 3.15625 -6.234375 C 2.726562 -5.773438 2.515625 -5.03125 2.515625 -4 L 2.515625 0 Z M 1.359375 0 "/></g></g><g style="fill:#a6b3d4;fill-opacity:1;"><g transform="translate(130.288985, 124.368428)"><path style="stroke:none" d="M 7.4375 -3.640625 L 2.078125 -3.640625 C 2.109375 -2.691406 2.332031 -1.992188 2.75 -1.546875 C 3.175781 -1.109375 3.753906 -0.890625 4.484375 -0.890625 C 5.046875 -0.890625 5.492188 -0.988281 5.828125 -1.1875 C 6.171875 -1.382812 6.441406 -1.691406 6.640625 -2.109375 L 6.78125 -2.109375 L 7.53125 -1.671875 C 7.300781 -1.109375 6.9375 -0.660156 6.4375 -0.328125 C 5.945312 -0.00390625 5.296875 0.15625 4.484375 0.15625 C 3.734375 0.15625 3.085938 0.00390625 2.546875 -0.296875 C 2.003906 -0.597656 1.585938 -1.046875 1.296875 -1.640625 C 1.003906 -2.242188 0.859375 -2.992188 0.859375 -3.890625 C 0.859375 -4.773438 1.007812 -5.519531 1.3125 -6.125 C 1.625 -6.738281 2.046875 -7.195312 2.578125 -7.5 C 3.117188 -7.800781 3.734375 -7.953125 4.421875 -7.953125 C 5.421875 -7.953125 6.203125 -7.671875 6.765625 -7.109375 C 7.328125 -6.546875 7.609375 -5.707031 7.609375 -4.59375 C 7.609375 -4.164062 7.597656 -3.875 7.578125 -3.71875 Z M 6.46875 -4.59375 C 6.445312 -5.425781 6.257812 -6.03125 5.90625 -6.40625 C 5.5625 -6.78125 5.066406 -6.96875 4.421875 -6.96875 C 3.734375 -6.96875 3.195312 -6.773438 2.8125 -6.390625 C 2.425781 -6.015625 2.1875 -5.414062 2.09375 -4.59375 Z M 6.46875 -4.59375 "/></g></g><g style="fill:#a6b3d4;fill-opacity:1;"><g transform="translate(138.601966, 124.368428)"><path style="stroke:none" d=""/></g></g><g style="fill:#a6b3d4;fill-opacity:1;"><g transform="translate(142.150535, 124.368428)"><path style="stroke:none" d="M 4.515625 0 L 2.921875 0 L 0.5625 -10.34375 L 1.765625 -10.34375 L 3.703125 -1.796875 L 3.875 -1.796875 L 6.203125 -10.34375 L 7.328125 -10.34375 L 9.640625 -1.796875 L 9.828125 -1.796875 L 11.78125 -10.34375 L 12.9375 -10.34375 L 10.578125 0 L 8.984375 0 L 6.828125 -7.828125 L 6.671875 -7.828125 Z M 4.515625 0 "/></g></g><g style="fill:#a6b3d4;fill-opacity:1;"><g transform="translate(155.26317, 124.368428)"><path style="stroke:none" d="M 3.21875 0.15625 C 2.445312 0.15625 1.84375 -0.0390625 1.40625 -0.4375 C 0.976562 -0.84375 0.765625 -1.421875 0.765625 -2.171875 C 0.765625 -2.628906 0.859375 -3.015625 1.046875 -3.328125 C 1.242188 -3.648438 1.539062 -3.910156 1.9375 -4.109375 C 2.34375 -4.316406 2.867188 -4.472656 3.515625 -4.578125 C 4.078125 -4.671875 4.503906 -4.773438 4.796875 -4.890625 C 5.097656 -5.015625 5.296875 -5.148438 5.390625 -5.296875 C 5.492188 -5.441406 5.546875 -5.625 5.546875 -5.84375 C 5.546875 -6.195312 5.425781 -6.46875 5.1875 -6.65625 C 4.945312 -6.84375 4.554688 -6.9375 4.015625 -6.9375 C 3.515625 -6.9375 3.082031 -6.835938 2.71875 -6.640625 C 2.351562 -6.453125 2.019531 -6.164062 1.71875 -5.78125 L 1.578125 -5.78125 L 1.015625 -6.578125 C 1.347656 -6.992188 1.769531 -7.328125 2.28125 -7.578125 C 2.789062 -7.828125 3.367188 -7.953125 4.015625 -7.953125 C 4.929688 -7.953125 5.609375 -7.75 6.046875 -7.34375 C 6.484375 -6.9375 6.703125 -6.378906 6.703125 -5.671875 L 6.703125 -1.53125 C 6.703125 -1.101562 6.882812 -0.890625 7.25 -0.890625 C 7.375 -0.890625 7.492188 -0.910156 7.609375 -0.953125 L 7.703125 -0.921875 L 7.84375 -0.125 C 7.757812 -0.0625 7.644531 -0.015625 7.5 0.015625 C 7.363281 0.046875 7.222656 0.0625 7.078125 0.0625 C 6.648438 0.0625 6.328125 -0.03125 6.109375 -0.21875 C 5.890625 -0.414062 5.75 -0.695312 5.6875 -1.0625 L 5.53125 -1.078125 C 5.3125 -0.660156 5.015625 -0.347656 4.640625 -0.140625 C 4.265625 0.0546875 3.789062 0.15625 3.21875 0.15625 Z M 3.46875 -0.765625 C 3.90625 -0.765625 4.28125 -0.863281 4.59375 -1.0625 C 4.914062 -1.269531 5.160156 -1.554688 5.328125 -1.921875 C 5.503906 -2.285156 5.59375 -2.703125 5.59375 -3.171875 L 5.59375 -4.171875 L 5.453125 -4.1875 C 5.273438 -4.070312 5.0625 -3.972656 4.8125 -3.890625 C 4.5625 -3.804688 4.210938 -3.726562 3.765625 -3.65625 C 3.316406 -3.601562 2.957031 -3.507812 2.6875 -3.375 C 2.425781 -3.25 2.238281 -3.085938 2.125 -2.890625 C 2.007812 -2.703125 1.953125 -2.460938 1.953125 -2.171875 C 1.953125 -1.710938 2.085938 -1.363281 2.359375 -1.125 C 2.628906 -0.882812 3 -0.765625 3.46875 -0.765625 Z M 3.46875 -0.765625 "/></g></g><g style="fill:#a6b3d4;fill-opacity:1;"><g transform="translate(163.328741, 124.368428)"><path style="stroke:none" d="M 3.109375 0.15625 C 2.554688 0.15625 2.117188 0 1.796875 -0.3125 C 1.484375 -0.632812 1.328125 -1.101562 1.328125 -1.71875 L 1.328125 -10.9375 L 2.484375 -10.9375 L 2.484375 -1.796875 C 2.484375 -1.472656 2.546875 -1.238281 2.671875 -1.09375 C 2.796875 -0.957031 2.988281 -0.890625 3.25 -0.890625 C 3.414062 -0.890625 3.578125 -0.914062 3.734375 -0.96875 L 3.84375 -0.9375 L 3.96875 -0.03125 C 3.882812 0.03125 3.765625 0.078125 3.609375 0.109375 C 3.453125 0.140625 3.285156 0.15625 3.109375 0.15625 Z M 3.109375 0.15625 "/></g></g><g style="fill:#a6b3d4;fill-opacity:1;"><g transform="translate(167.570058, 124.368428)"><path style="stroke:none" d="M 3.109375 0.15625 C 2.554688 0.15625 2.117188 0 1.796875 -0.3125 C 1.484375 -0.632812 1.328125 -1.101562 1.328125 -1.71875 L 1.328125 -10.9375 L 2.484375 -10.9375 L 2.484375 -1.796875 C 2.484375 -1.472656 2.546875 -1.238281 2.671875 -1.09375 C 2.796875 -0.957031 2.988281 -0.890625 3.25 -0.890625 C 3.414062 -0.890625 3.578125 -0.914062 3.734375 -0.96875 L 3.84375 -0.9375 L 3.96875 -0.03125 C 3.882812 0.03125 3.765625 0.078125 3.609375 0.109375 C 3.453125 0.140625 3.285156 0.15625 3.109375 0.15625 Z M 3.109375 0.15625 "/></g></g><g style="fill:#a6b3d4;fill-opacity:1;"><g transform="translate(171.811375, 124.368428)"><path style="stroke:none" d="M 7.4375 -3.640625 L 2.078125 -3.640625 C 2.109375 -2.691406 2.332031 -1.992188 2.75 -1.546875 C 3.175781 -1.109375 3.753906 -0.890625 4.484375 -0.890625 C 5.046875 -0.890625 5.492188 -0.988281 5.828125 -1.1875 C 6.171875 -1.382812 6.441406 -1.691406 6.640625 -2.109375 L 6.78125 -2.109375 L 7.53125 -1.671875 C 7.300781 -1.109375 6.9375 -0.660156 6.4375 -0.328125 C 5.945312 -0.00390625 5.296875 0.15625 4.484375 0.15625 C 3.734375 0.15625 3.085938 0.00390625 2.546875 -0.296875 C 2.003906 -0.597656 1.585938 -1.046875 1.296875 -1.640625 C 1.003906 -2.242188 0.859375 -2.992188 0.859375 -3.890625 C 0.859375 -4.773438 1.007812 -5.519531 1.3125 -6.125 C 1.625 -6.738281 2.046875 -7.195312 2.578125 -7.5 C 3.117188 -7.800781 3.734375 -7.953125 4.421875 -7.953125 C 5.421875 -7.953125 6.203125 -7.671875 6.765625 -7.109375 C 7.328125 -6.546875 7.609375 -5.707031 7.609375 -4.59375 C 7.609375 -4.164062 7.597656 -3.875 7.578125 -3.71875 Z M 6.46875 -4.59375 C 6.445312 -5.425781 6.257812 -6.03125 5.90625 -6.40625 C 5.5625 -6.78125 5.066406 -6.96875 4.421875 -6.96875 C 3.734375 -6.96875 3.195312 -6.773438 2.8125 -6.390625 C 2.425781 -6.015625 2.1875 -5.414062 2.09375 -4.59375 Z M 6.46875 -4.59375 "/></g></g><g style="fill:#a6b3d4;fill-opacity:1;"><g transform="translate(180.124356, 124.368428)"><path style="stroke:none" d="M 5.28125 -1.234375 L 5.640625 -0.40625 C 5.460938 -0.226562 5.222656 -0.09375 4.921875 0 C 4.617188 0.101562 4.296875 0.15625 3.953125 0.15625 C 2.460938 0.15625 1.71875 -0.597656 1.71875 -2.109375 L 1.71875 -6.859375 L 0.359375 -6.859375 L 0.359375 -7.8125 L 1.71875 -7.8125 L 1.71875 -9.453125 L 2.859375 -9.640625 L 2.859375 -7.8125 L 5.375 -7.8125 L 5.375 -6.859375 L 2.859375 -6.859375 L 2.859375 -2.234375 C 2.859375 -1.335938 3.25 -0.890625 4.03125 -0.890625 C 4.457031 -0.890625 4.820312 -1.003906 5.125 -1.234375 Z M 5.28125 -1.234375 "/></g></g><g style="fill:#a6b3d4;fill-opacity:1;"><g transform="translate(186.0622, 124.368428)"><path style="stroke:none" d=""/></g></g><g style="fill:#a6b3d4;fill-opacity:1;"><g transform="translate(189.610768, 124.368428)"><path style="stroke:none" d="M 9.3125 0 L 8 0 L 7.046875 -2.84375 L 2.640625 -2.84375 L 1.6875 0 L 0.40625 0 L 4.015625 -10.34375 L 5.703125 -10.34375 Z M 4.765625 -9.09375 L 2.984375 -3.859375 L 6.703125 -3.859375 L 4.9375 -9.09375 Z M 4.765625 -9.09375 "/></g></g><g style="fill:#a6b3d4;fill-opacity:1;"><g transform="translate(199.323384, 124.368428)"><path style="stroke:none" d="M 1.359375 3.15625 L 1.359375 -7.796875 L 2.515625 -7.796875 L 2.515625 -6.640625 L 2.65625 -6.609375 C 3.238281 -7.503906 4.09375 -7.953125 5.21875 -7.953125 C 5.863281 -7.953125 6.425781 -7.800781 6.90625 -7.5 C 7.394531 -7.207031 7.773438 -6.753906 8.046875 -6.140625 C 8.316406 -5.535156 8.453125 -4.785156 8.453125 -3.890625 C 8.453125 -3.003906 8.3125 -2.257812 8.03125 -1.65625 C 7.75 -1.050781 7.359375 -0.597656 6.859375 -0.296875 C 6.359375 0.00390625 5.78125 0.15625 5.125 0.15625 C 4.59375 0.15625 4.125 0.0625 3.71875 -0.125 C 3.3125 -0.3125 2.957031 -0.613281 2.65625 -1.03125 L 2.515625 -1 L 2.515625 3.15625 Z M 4.875 -0.890625 C 6.457031 -0.890625 7.25 -1.890625 7.25 -3.890625 C 7.25 -5.910156 6.457031 -6.921875 4.875 -6.921875 C 4.414062 -6.921875 4.007812 -6.8125 3.65625 -6.59375 C 3.300781 -6.382812 3.019531 -6.050781 2.8125 -5.59375 C 2.613281 -5.144531 2.515625 -4.578125 2.515625 -3.890625 C 2.515625 -3.210938 2.613281 -2.644531 2.8125 -2.1875 C 3.019531 -1.738281 3.300781 -1.410156 3.65625 -1.203125 C 4.007812 -0.992188 4.414062 -0.890625 4.875 -0.890625 Z M 4.875 -0.890625 "/></g></g><g style="fill:#a6b3d4;fill-opacity:1;"><g transform="translate(208.626006, 124.368428)"><path style="stroke:none" d="M 1.359375 3.15625 L 1.359375 -7.796875 L 2.515625 -7.796875 L 2.515625 -6.640625 L 2.65625 -6.609375 C 3.238281 -7.503906 4.09375 -7.953125 5.21875 -7.953125 C 5.863281 -7.953125 6.425781 -7.800781 6.90625 -7.5 C 7.394531 -7.207031 7.773438 -6.753906 8.046875 -6.140625 C 8.316406 -5.535156 8.453125 -4.785156 8.453125 -3.890625 C 8.453125 -3.003906 8.3125 -2.257812 8.03125 -1.65625 C 7.75 -1.050781 7.359375 -0.597656 6.859375 -0.296875 C 6.359375 0.00390625 5.78125 0.15625 5.125 0.15625 C 4.59375 0.15625 4.125 0.0625 3.71875 -0.125 C 3.3125 -0.3125 2.957031 -0.613281 2.65625 -1.03125 L 2.515625 -1 L 2.515625 3.15625 Z M 4.875 -0.890625 C 6.457031 -0.890625 7.25 -1.890625 7.25 -3.890625 C 7.25 -5.910156 6.457031 -6.921875 4.875 -6.921875 C 4.414062 -6.921875 4.007812 -6.8125 3.65625 -6.59375 C 3.300781 -6.382812 3.019531 -6.050781 2.8125 -5.59375 C 2.613281 -5.144531 2.515625 -4.578125 2.515625 -3.890625 C 2.515625 -3.210938 2.613281 -2.644531 2.8125 -2.1875 C 3.019531 -1.738281 3.300781 -1.410156 3.65625 -1.203125 C 4.007812 -0.992188 4.414062 -0.890625 4.875 -0.890625 Z M 4.875 -0.890625 "/></g></g></g></svg>